<group>
amp_velcurve_127=1
amp_velcurve_102=1.1310301997026824
amp_velcurve_100=1
amp_velcurve_82=0.9782742912970316
amp_velcurve_80=1
amp_velcurve_62=0.8712057713866025
amp_velcurve_60=1
amp_velcurve_42=0.9320224180999345
amp_velcurve_40=1
amp_velcurve_22=1.1346337981719108
amp_velcurve_20=1
amp_velcurve_2=0
<region>
lovel=101
hivel=127
ampeg_release=1
sample=Db6.flac
offset=0
lokey=84
hikey=84
pitch_keycenter=85
end=2226491

<region>
lovel=81
hivel=100
ampeg_release=1
sample=Db6.flac
offset=2226494
lokey=84
hikey=84
pitch_keycenter=85
end=4454442

<region>
lovel=61
hivel=80
ampeg_release=1
sample=Db6.flac
offset=4454445
lokey=84
hikey=84
pitch_keycenter=85
end=6677463

<region>
lovel=41
hivel=60
ampeg_release=1
sample=Db6.flac
offset=6677466
lokey=84
hikey=84
pitch_keycenter=85
end=8899262

<region>
lovel=21
hivel=40
ampeg_release=1
sample=Db6.flac
offset=8899265
lokey=84
hikey=84
pitch_keycenter=85
end=11123366

<region>
lovel=1
hivel=20
ampeg_release=1
sample=Db6.flac
offset=11123369
lokey=84
hikey=84
pitch_keycenter=85
end=13345099
<group>
amp_velcurve_127=1
amp_velcurve_102=1.0358172405512458
amp_velcurve_100=1
amp_velcurve_82=0.9566045224582738
amp_velcurve_80=1
amp_velcurve_62=0.9768979349761338
amp_velcurve_60=1
amp_velcurve_42=0.9209058444132651
amp_velcurve_40=1
amp_velcurve_22=1.1029520415140504
amp_velcurve_20=1
amp_velcurve_2=0
<region>
lovel=101
hivel=127
ampeg_release=1
sample=Bb5.flac
offset=0
lokey=81
hikey=83
pitch_keycenter=82
end=2232345

<region>
lovel=81
hivel=100
ampeg_release=1
sample=Bb5.flac
offset=2232348
lokey=81
hikey=83
pitch_keycenter=82
end=4457783

<region>
lovel=61
hivel=80
ampeg_release=1
sample=Bb5.flac
offset=4457786
lokey=81
hikey=83
pitch_keycenter=82
end=6679602

<region>
lovel=41
hivel=60
ampeg_release=1
sample=Bb5.flac
offset=6679605
lokey=81
hikey=83
pitch_keycenter=82
end=8904175

<region>
lovel=21
hivel=40
ampeg_release=1
sample=Bb5.flac
offset=8904178
lokey=81
hikey=83
pitch_keycenter=82
end=11126173

<region>
lovel=1
hivel=20
ampeg_release=1
sample=Bb5.flac
offset=11126176
lokey=81
hikey=83
pitch_keycenter=82
end=13348570
<group>
amp_velcurve_127=1
amp_velcurve_102=1.4370370960940437
amp_velcurve_100=1
amp_velcurve_82=0.9007525687437049
amp_velcurve_80=1
amp_velcurve_62=0.9341665868067625
amp_velcurve_60=1
amp_velcurve_42=0.8469065838737384
amp_velcurve_40=1
amp_velcurve_22=1.1367171429493215
amp_velcurve_20=1
amp_velcurve_2=0
<region>
lovel=101
hivel=127
ampeg_release=1
sample=G5.flac
offset=0
lokey=78
hikey=80
pitch_keycenter=79
end=2223655

<region>
lovel=81
hivel=100
ampeg_release=1
sample=G5.flac
offset=2223658
lokey=78
hikey=80
pitch_keycenter=79
end=4447179

<region>
lovel=61
hivel=80
ampeg_release=1
sample=G5.flac
offset=4447182
lokey=78
hikey=80
pitch_keycenter=79
end=6671437

<region>
lovel=41
hivel=60
ampeg_release=1
sample=G5.flac
offset=6671440
lokey=78
hikey=80
pitch_keycenter=79
end=8898786

<region>
lovel=21
hivel=40
ampeg_release=1
sample=G5.flac
offset=8898789
lokey=78
hikey=80
pitch_keycenter=79
end=11119558

<region>
lovel=1
hivel=20
ampeg_release=1
sample=G5.flac
offset=11119561
lokey=78
hikey=80
pitch_keycenter=79
end=13343343
<group>
amp_velcurve_127=1
amp_velcurve_102=0.7485705740247193
amp_velcurve_100=1
amp_velcurve_82=1.346010326295238
amp_velcurve_80=1
amp_velcurve_62=0.870493395055014
amp_velcurve_60=1
amp_velcurve_42=1.031793756539698
amp_velcurve_40=1
amp_velcurve_22=0.872409144894028
amp_velcurve_20=1
amp_velcurve_2=0
<region>
lovel=101
hivel=127
ampeg_release=1
sample=E5.flac
offset=0
lokey=75
hikey=77
pitch_keycenter=76
end=2229565

<region>
lovel=81
hivel=100
ampeg_release=1
sample=E5.flac
offset=2229568
lokey=75
hikey=77
pitch_keycenter=76
end=4451441

<region>
lovel=61
hivel=80
ampeg_release=1
sample=E5.flac
offset=4451444
lokey=75
hikey=77
pitch_keycenter=76
end=6679358

<region>
lovel=41
hivel=60
ampeg_release=1
sample=E5.flac
offset=6679361
lokey=75
hikey=77
pitch_keycenter=76
end=8902458

<region>
lovel=21
hivel=40
ampeg_release=1
sample=E5.flac
offset=8902461
lokey=75
hikey=77
pitch_keycenter=76
end=11130027

<region>
lovel=1
hivel=20
ampeg_release=1
sample=E5.flac
offset=11130030
lokey=75
hikey=77
pitch_keycenter=76
end=13349622
<group>
amp_velcurve_127=1
amp_velcurve_102=0.9450649825391683
amp_velcurve_100=1
amp_velcurve_82=0.8583942854644996
amp_velcurve_80=1
amp_velcurve_62=0.9858969272014289
amp_velcurve_60=1
amp_velcurve_42=0.8712335080383707
amp_velcurve_40=1
amp_velcurve_22=1.10193504398664
amp_velcurve_20=1
amp_velcurve_2=0
<region>
lovel=101
hivel=127
ampeg_release=1
sample=Db5.flac
offset=0
lokey=72
hikey=74
pitch_keycenter=73
end=2225252

<region>
lovel=81
hivel=100
ampeg_release=1
sample=Db5.flac
offset=2225255
lokey=72
hikey=74
pitch_keycenter=73
end=4452117

<region>
lovel=61
hivel=80
ampeg_release=1
sample=Db5.flac
offset=4452120
lokey=72
hikey=74
pitch_keycenter=73
end=6678096

<region>
lovel=41
hivel=60
ampeg_release=1
sample=Db5.flac
offset=6678099
lokey=72
hikey=74
pitch_keycenter=73
end=8906602

<region>
lovel=21
hivel=40
ampeg_release=1
sample=Db5.flac
offset=8906605
lokey=72
hikey=74
pitch_keycenter=73
end=11128890

<region>
lovel=1
hivel=20
ampeg_release=1
sample=Db5.flac
offset=11128893
lokey=72
hikey=74
pitch_keycenter=73
end=13349856
<group>
amp_velcurve_127=1
amp_velcurve_102=0.96960505037986
amp_velcurve_100=1
amp_velcurve_82=0.8451796546859627
amp_velcurve_80=1
amp_velcurve_62=1.0122814526022867
amp_velcurve_60=1
amp_velcurve_42=0.852985068815476
amp_velcurve_40=1
amp_velcurve_22=0.9629556512483505
amp_velcurve_20=1
amp_velcurve_2=0
<region>
lovel=101
hivel=127
ampeg_release=1
sample=Bb4.flac
offset=0
lokey=69
hikey=71
pitch_keycenter=70
end=2226668

<region>
lovel=81
hivel=100
ampeg_release=1
sample=Bb4.flac
offset=2226671
lokey=69
hikey=71
pitch_keycenter=70
end=4453098

<region>
lovel=61
hivel=80
ampeg_release=1
sample=Bb4.flac
offset=4453101
lokey=69
hikey=71
pitch_keycenter=70
end=6674977

<region>
lovel=41
hivel=60
ampeg_release=1
sample=Bb4.flac
offset=6674980
lokey=69
hikey=71
pitch_keycenter=70
end=8903114

<region>
lovel=21
hivel=40
ampeg_release=1
sample=Bb4.flac
offset=8903117
lokey=69
hikey=71
pitch_keycenter=70
end=11123764

<region>
lovel=1
hivel=20
ampeg_release=1
sample=Bb4.flac
offset=11123767
lokey=69
hikey=71
pitch_keycenter=70
end=13346862
<group>
amp_velcurve_127=1
amp_velcurve_102=0.8619900622742552
amp_velcurve_100=1
amp_velcurve_82=0.9951400348381104
amp_velcurve_80=1
amp_velcurve_62=1.2825087128943489
amp_velcurve_60=1
amp_velcurve_42=0.8301170636418927
amp_velcurve_40=1
amp_velcurve_22=0.9512765150643896
amp_velcurve_20=1
amp_velcurve_2=0
<region>
lovel=101
hivel=127
ampeg_release=1
sample=G4.flac
offset=0
lokey=66
hikey=68
pitch_keycenter=67
end=2229413

<region>
lovel=81
hivel=100
ampeg_release=1
sample=G4.flac
offset=2229416
lokey=66
hikey=68
pitch_keycenter=67
end=4459234

<region>
lovel=61
hivel=80
ampeg_release=1
sample=G4.flac
offset=4459237
lokey=66
hikey=68
pitch_keycenter=67
end=6684732

<region>
lovel=41
hivel=60
ampeg_release=1
sample=G4.flac
offset=6684735
lokey=66
hikey=68
pitch_keycenter=67
end=8915679

<region>
lovel=21
hivel=40
ampeg_release=1
sample=G4.flac
offset=8915682
lokey=66
hikey=68
pitch_keycenter=67
end=11141286

<region>
lovel=1
hivel=20
ampeg_release=1
sample=G4.flac
offset=11141289
lokey=66
hikey=68
pitch_keycenter=67
end=13366857
<group>
amp_velcurve_127=1
amp_velcurve_102=0.894515011523816
amp_velcurve_100=1
amp_velcurve_82=0.7661609006342373
amp_velcurve_80=1
amp_velcurve_62=1.0786595636337988
amp_velcurve_60=1
amp_velcurve_42=0.8243042240689035
amp_velcurve_40=1
amp_velcurve_22=1.0366599542104913
amp_velcurve_20=1
amp_velcurve_2=0
<region>
lovel=101
hivel=127
ampeg_release=1
sample=E4.flac
offset=0
lokey=63
hikey=65
pitch_keycenter=64
end=2230436

<region>
lovel=81
hivel=100
ampeg_release=1
sample=E4.flac
offset=2230439
lokey=63
hikey=65
pitch_keycenter=64
end=4458345

<region>
lovel=61
hivel=80
ampeg_release=1
sample=E4.flac
offset=4458348
lokey=63
hikey=65
pitch_keycenter=64
end=6688611

<region>
lovel=41
hivel=60
ampeg_release=1
sample=E4.flac
offset=6688614
lokey=63
hikey=65
pitch_keycenter=64
end=8916711

<region>
lovel=21
hivel=40
ampeg_release=1
sample=E4.flac
offset=8916714
lokey=63
hikey=65
pitch_keycenter=64
end=11142245

<region>
lovel=1
hivel=20
ampeg_release=1
sample=E4.flac
offset=11142248
lokey=63
hikey=65
pitch_keycenter=64
end=13370320
<group>
amp_velcurve_127=1
amp_velcurve_102=1.3233732286741675
amp_velcurve_100=1
amp_velcurve_82=0.6885566500452232
amp_velcurve_80=1
amp_velcurve_62=1.0270831605412258
amp_velcurve_60=1
amp_velcurve_42=0.9470765876009776
amp_velcurve_40=1
amp_velcurve_22=0.9329174253222322
amp_velcurve_20=1
amp_velcurve_2=0
<region>
lovel=101
hivel=127
ampeg_release=1
sample=Db4.flac
offset=0
lokey=60
hikey=62
pitch_keycenter=61
end=2231052

<region>
lovel=81
hivel=100
ampeg_release=1
sample=Db4.flac
offset=2231055
lokey=60
hikey=62
pitch_keycenter=61
end=4460269

<region>
lovel=61
hivel=80
ampeg_release=1
sample=Db4.flac
offset=4460272
lokey=60
hikey=62
pitch_keycenter=61
end=6693887

<region>
lovel=41
hivel=60
ampeg_release=1
sample=Db4.flac
offset=6693890
lokey=60
hikey=62
pitch_keycenter=61
end=8921432

<region>
lovel=21
hivel=40
ampeg_release=1
sample=Db4.flac
offset=8921435
lokey=60
hikey=62
pitch_keycenter=61
end=11148243

<region>
lovel=1
hivel=20
ampeg_release=1
sample=Db4.flac
offset=11148246
lokey=60
hikey=62
pitch_keycenter=61
end=13371140
<group>
amp_velcurve_127=1
amp_velcurve_102=1.2340250859067738
amp_velcurve_100=1
amp_velcurve_82=0.918798174568579
amp_velcurve_80=1
amp_velcurve_62=0.9178170285841297
amp_velcurve_60=1
amp_velcurve_42=1.0175932062678164
amp_velcurve_40=1
amp_velcurve_22=0.9484151415632605
amp_velcurve_20=1
amp_velcurve_2=0
<region>
lovel=101
hivel=127
ampeg_release=1
sample=Bb3.flac
offset=0
lokey=57
hikey=59
pitch_keycenter=58
end=2226359

<region>
lovel=81
hivel=100
ampeg_release=1
sample=Bb3.flac
offset=2226362
lokey=57
hikey=59
pitch_keycenter=58
end=4458125

<region>
lovel=61
hivel=80
ampeg_release=1
sample=Bb3.flac
offset=4458128
lokey=57
hikey=59
pitch_keycenter=58
end=6685578

<region>
lovel=41
hivel=60
ampeg_release=1
sample=Bb3.flac
offset=6685581
lokey=57
hikey=59
pitch_keycenter=58
end=8911979

<region>
lovel=21
hivel=40
ampeg_release=1
sample=Bb3.flac
offset=8911982
lokey=57
hikey=59
pitch_keycenter=58
end=11137700

<region>
lovel=1
hivel=20
ampeg_release=1
sample=Bb3.flac
offset=11137703
lokey=57
hikey=59
pitch_keycenter=58
end=13358758
<group>
amp_velcurve_127=1
amp_velcurve_102=1.7504760154304684
amp_velcurve_100=1
amp_velcurve_82=0.7742813258741746
amp_velcurve_80=1
amp_velcurve_62=0.9735956902212113
amp_velcurve_60=1
amp_velcurve_42=0.9239059163948867
amp_velcurve_40=1
amp_velcurve_22=0.8913759573696001
amp_velcurve_20=1
amp_velcurve_2=0
<region>
lovel=101
hivel=127
ampeg_release=1
sample=G3.flac
offset=0
lokey=54
hikey=56
pitch_keycenter=55
end=2233032

<region>
lovel=81
hivel=100
ampeg_release=1
sample=G3.flac
offset=2233035
lokey=54
hikey=56
pitch_keycenter=55
end=4458202

<region>
lovel=61
hivel=80
ampeg_release=1
sample=G3.flac
offset=4458205
lokey=54
hikey=56
pitch_keycenter=55
end=6685066

<region>
lovel=41
hivel=60
ampeg_release=1
sample=G3.flac
offset=6685069
lokey=54
hikey=56
pitch_keycenter=55
end=8906636

<region>
lovel=21
hivel=40
ampeg_release=1
sample=G3.flac
offset=8906639
lokey=54
hikey=56
pitch_keycenter=55
end=11135411

<region>
lovel=1
hivel=20
ampeg_release=1
sample=G3.flac
offset=11135414
lokey=54
hikey=56
pitch_keycenter=55
end=13359364
<group>
amp_velcurve_127=1
amp_velcurve_102=0.9329545268726227
amp_velcurve_100=1
amp_velcurve_82=0.853576655708881
amp_velcurve_80=1
amp_velcurve_62=1.0104128681968467
amp_velcurve_60=1
amp_velcurve_42=0.9953276247410979
amp_velcurve_40=1
amp_velcurve_22=0.9324097823479768
amp_velcurve_20=1
amp_velcurve_2=0
<region>
lovel=101
hivel=127
ampeg_release=1
sample=E3.flac
offset=0
lokey=51
hikey=53
pitch_keycenter=52
end=2228383

<region>
lovel=81
hivel=100
ampeg_release=1
sample=E3.flac
offset=2228386
lokey=51
hikey=53
pitch_keycenter=52
end=4457067

<region>
lovel=61
hivel=80
ampeg_release=1
sample=E3.flac
offset=4457070
lokey=51
hikey=53
pitch_keycenter=52
end=6684784

<region>
lovel=41
hivel=60
ampeg_release=1
sample=E3.flac
offset=6684787
lokey=51
hikey=53
pitch_keycenter=52
end=8917093

<region>
lovel=21
hivel=40
ampeg_release=1
sample=E3.flac
offset=8917096
lokey=51
hikey=53
pitch_keycenter=52
end=11143471

<region>
lovel=1
hivel=20
ampeg_release=1
sample=E3.flac
offset=11143474
lokey=51
hikey=53
pitch_keycenter=52
end=13363757
<group>
amp_velcurve_127=1
amp_velcurve_102=1.0693698251687713
amp_velcurve_100=1
amp_velcurve_82=1.0654792375282227
amp_velcurve_80=1
amp_velcurve_62=1.0495147364547177
amp_velcurve_60=1
amp_velcurve_42=0.7604564917637406
amp_velcurve_40=1
amp_velcurve_22=0.9013756069962888
amp_velcurve_20=1
amp_velcurve_2=0
<region>
lovel=101
hivel=127
ampeg_release=1
sample=Db3.flac
offset=0
lokey=48
hikey=50
pitch_keycenter=49
end=2238855

<region>
lovel=81
hivel=100
ampeg_release=1
sample=Db3.flac
offset=2238858
lokey=48
hikey=50
pitch_keycenter=49
end=4467435

<region>
lovel=61
hivel=80
ampeg_release=1
sample=Db3.flac
offset=4467438
lokey=48
hikey=50
pitch_keycenter=49
end=6700091

<region>
lovel=41
hivel=60
ampeg_release=1
sample=Db3.flac
offset=6700094
lokey=48
hikey=50
pitch_keycenter=49
end=8929082

<region>
lovel=21
hivel=40
ampeg_release=1
sample=Db3.flac
offset=8929085
lokey=48
hikey=50
pitch_keycenter=49
end=11156143

<region>
lovel=1
hivel=20
ampeg_release=1
sample=Db3.flac
offset=11156146
lokey=48
hikey=50
pitch_keycenter=49
end=13385481
<group>
amp_velcurve_127=1
amp_velcurve_102=0.9911352236633614
amp_velcurve_100=1
amp_velcurve_82=1.0419663768461063
amp_velcurve_80=1
amp_velcurve_62=0.9970530555440079
amp_velcurve_60=1
amp_velcurve_42=1.1392830219969434
amp_velcurve_40=1
amp_velcurve_22=0.7077167621974653
amp_velcurve_20=1
amp_velcurve_2=0
<region>
lovel=101
hivel=127
ampeg_release=1
sample=Bb2.flac
offset=0
lokey=45
hikey=47
pitch_keycenter=46
end=2229397

<region>
lovel=81
hivel=100
ampeg_release=1
sample=Bb2.flac
offset=2229400
lokey=45
hikey=47
pitch_keycenter=46
end=4458359

<region>
lovel=61
hivel=80
ampeg_release=1
sample=Bb2.flac
offset=4458362
lokey=45
hikey=47
pitch_keycenter=46
end=6683228

<region>
lovel=41
hivel=60
ampeg_release=1
sample=Bb2.flac
offset=6683231
lokey=45
hikey=47
pitch_keycenter=46
end=8907992

<region>
lovel=21
hivel=40
ampeg_release=1
sample=Bb2.flac
offset=8907995
lokey=45
hikey=47
pitch_keycenter=46
end=11134803

<region>
lovel=1
hivel=20
ampeg_release=1
sample=Bb2.flac
offset=11134806
lokey=45
hikey=47
pitch_keycenter=46
end=13354667
<group>
amp_velcurve_127=1
amp_velcurve_102=1.1886557349880669
amp_velcurve_100=1
amp_velcurve_82=0.8995670878486076
amp_velcurve_80=1
amp_velcurve_62=0.9739799516998817
amp_velcurve_60=1
amp_velcurve_42=1.0444029778753594
amp_velcurve_40=1
amp_velcurve_22=0.8178952460622347
amp_velcurve_20=1
amp_velcurve_2=0
<region>
lovel=101
hivel=127
ampeg_release=1
sample=G2.flac
offset=0
lokey=42
hikey=44
pitch_keycenter=43
end=2229767

<region>
lovel=81
hivel=100
ampeg_release=1
sample=G2.flac
offset=2229770
lokey=42
hikey=44
pitch_keycenter=43
end=4458520

<region>
lovel=61
hivel=80
ampeg_release=1
sample=G2.flac
offset=4458523
lokey=42
hikey=44
pitch_keycenter=43
end=6688349

<region>
lovel=41
hivel=60
ampeg_release=1
sample=G2.flac
offset=6688352
lokey=42
hikey=44
pitch_keycenter=43
end=8913255

<region>
lovel=21
hivel=40
ampeg_release=1
sample=G2.flac
offset=8913258
lokey=42
hikey=44
pitch_keycenter=43
end=11141048

<region>
lovel=1
hivel=20
ampeg_release=1
sample=G2.flac
offset=11141051
lokey=42
hikey=44
pitch_keycenter=43
end=13362559
<group>
amp_velcurve_127=1
amp_velcurve_102=0.7317243151932973
amp_velcurve_100=1
amp_velcurve_82=1.2374626119373713
amp_velcurve_80=1
amp_velcurve_62=0.939438141728691
amp_velcurve_60=1
amp_velcurve_42=0.8352009164076344
amp_velcurve_40=1
amp_velcurve_22=0.7730466847916317
amp_velcurve_20=1
amp_velcurve_2=0
<region>
lovel=101
hivel=127
ampeg_release=1
sample=E2.flac
offset=0
lokey=39
hikey=41
pitch_keycenter=40
end=2230272

<region>
lovel=81
hivel=100
ampeg_release=1
sample=E2.flac
offset=2230275
lokey=39
hikey=41
pitch_keycenter=40
end=4461209

<region>
lovel=61
hivel=80
ampeg_release=1
sample=E2.flac
offset=4461212
lokey=39
hikey=41
pitch_keycenter=40
end=6689450

<region>
lovel=41
hivel=60
ampeg_release=1
sample=E2.flac
offset=6689453
lokey=39
hikey=41
pitch_keycenter=40
end=8918677

<region>
lovel=21
hivel=40
ampeg_release=1
sample=E2.flac
offset=8918680
lokey=39
hikey=41
pitch_keycenter=40
end=11144305

<region>
lovel=1
hivel=20
ampeg_release=1
sample=E2.flac
offset=11144308
lokey=39
hikey=41
pitch_keycenter=40
end=13361700
<group>
amp_velcurve_127=1
amp_velcurve_102=0.9877035076760277
amp_velcurve_100=1
amp_velcurve_82=0.8856977987229607
amp_velcurve_80=1
amp_velcurve_62=0.933890604047215
amp_velcurve_60=1
amp_velcurve_42=0.9883313232034474
amp_velcurve_40=1
amp_velcurve_22=0.7149511468943373
amp_velcurve_20=1
amp_velcurve_2=0
<region>
lovel=101
hivel=127
ampeg_release=1
sample=Db2.flac
offset=0
lokey=36
hikey=38
pitch_keycenter=37
end=2321295

<region>
lovel=81
hivel=100
ampeg_release=1
sample=Db2.flac
offset=2321298
lokey=36
hikey=38
pitch_keycenter=37
end=4553269

<region>
lovel=61
hivel=80
ampeg_release=1
sample=Db2.flac
offset=4553272
lokey=36
hikey=38
pitch_keycenter=37
end=6783656

<region>
lovel=41
hivel=60
ampeg_release=1
sample=Db2.flac
offset=6783659
lokey=36
hikey=38
pitch_keycenter=37
end=9009415

<region>
lovel=21
hivel=40
ampeg_release=1
sample=Db2.flac
offset=9009418
lokey=36
hikey=38
pitch_keycenter=37
end=11239234

<region>
lovel=1
hivel=20
ampeg_release=1
sample=Db2.flac
offset=11239237
lokey=36
hikey=38
pitch_keycenter=37
end=13464831